<?xml version="1.0" standalone="no"?>
<!DOCTYPE svg PUBLIC "-//W3C//DTD SVG 20010904//EN"
 "http://www.w3.org/TR/2001/REC-SVG-20010904/DTD/svg10.dtd">
<svg version="1.0" xmlns="http://www.w3.org/2000/svg"
 width="19.000000pt" height="19.000000pt" viewBox="0 0 19.000000 19.000000"
 preserveAspectRatio="xMidYMid meet">

<g transform="translate(0.000000,19.000000) scale(0.100000,-0.100000)"
fill="#000000" stroke="none">
<path d="M35 158 c-22 -73 -26 -91 -19 -106 4 -9 7 -21 6 -27 -1 -6 23 -9 59
-9 72 2 95 19 97 70 2 47 -5 57 -29 43 -17 -8 -24 -6 -40 15 -22 27 -67 35
-74 14z m77 -42 c11 -11 16 -11 36 2 23 15 23 14 21 -24 -3 -55 -14 -64 -74
-64 -62 0 -80 15 -70 59 5 22 13 31 33 34 15 2 30 5 34 6 4 0 13 -5 20 -13z"/>
<path d="M80 105 c0 -8 5 -15 10 -15 6 0 10 7 10 15 0 8 -4 15 -10 15 -5 0
-10 -7 -10 -15z"/>
</g>
</svg>
